<svg width="264" height="412" viewBox="0 0 264 412" fill="none" xmlns="http://www.w3.org/2000/svg">
<mask id="path-1-inside-1_2_168" fill="white">
<path fill-rule="evenodd" clip-rule="evenodd" d="M119.697 28.679C116.278 12.8988 103.321 0 87.1743 0H30C13.4315 0 0 13.4315 0 30V382C0 398.569 13.4315 412 30 412H234C250.569 412 264 398.569 264 382V183.706C264 168.194 252.049 155.534 237.056 151.553C178.342 135.962 132.642 88.4236 119.697 28.679Z"/>
</mask>
<path fill-rule="evenodd" clip-rule="evenodd" d="M119.697 28.679C116.278 12.8988 103.321 0 87.1743 0H30C13.4315 0 0 13.4315 0 30V382C0 398.569 13.4315 412 30 412H234C250.569 412 264 398.569 264 382V183.706C264 168.194 252.049 155.534 237.056 151.553C178.342 135.962 132.642 88.4236 119.697 28.679Z" fill="#1D1D3B"/>
<path d="M30 1H87.1743V-1H30V1ZM1 382V30H-1V382H1ZM234 411H30V413H234V411ZM263 183.706V382H265V183.706H263ZM237.312 150.586C178.96 135.092 133.539 87.8433 120.674 28.4673L118.719 28.8908C131.744 89.0038 177.724 136.833 236.799 152.519L237.312 150.586ZM265 183.706C265 167.645 252.644 154.657 237.312 150.586L236.799 152.519C251.454 156.41 263 168.743 263 183.706H265ZM234 413C251.121 413 265 399.121 265 382H263C263 398.016 250.016 411 234 411V413ZM-1 382C-1 399.121 12.8792 413 30 413V411C13.9837 411 1 398.016 1 382H-1ZM87.1743 1C102.748 1 115.377 13.4631 118.719 28.8908L120.674 28.4673C117.179 12.3346 103.893 -1 87.1743 -1V1ZM30 -1C12.8792 -1 -1 12.8792 -1 30H1C1 13.9837 13.9837 1 30 1V-1Z" fill="white" fill-opacity="0.05" mask="url(#path-1-inside-1_2_168)"/>
</svg>
